<svg width="13" height="4" viewBox="0 0 13 4" fill="none" xmlns="http://www.w3.org/2000/svg">
<path d="M6.01591 0.894053C6.88782 0.894053 7.58242 1.45223 7.58242 2.12671C7.58242 2.81281 6.87307 3.35938 6.01591 3.35938C5.144 3.35938 4.4494 2.8012 4.4494 2.12671C4.4494 1.44062 5.144 0.894053 6.01591 0.894053Z" fill="#777676"/>
<path d="M10.4493 0.894053C11.3212 0.894053 12.0158 1.45223 12.0158 2.12671C12.0158 2.81281 11.3065 3.35938 10.4493 3.35938C9.59216 3.35938 8.88281 2.81281 8.88281 2.12671C8.88281 1.44062 9.57741 0.894053 10.4493 0.894053Z" fill="#777676"/>
<path d="M1.58213 0.894053C2.45404 0.894053 3.14864 1.45223 3.14864 2.12671C3.14864 2.81281 2.43929 3.35938 1.58213 3.35938C0.724972 3.35938 0.015625 2.81281 0.015625 2.12671C0.015625 1.44062 0.71022 0.894053 1.58213 0.894053Z" fill="#777676"/>
</svg>
