<svg width="94" height="41" viewBox="0 0 94 41" fill="none" xmlns="http://www.w3.org/2000/svg">
<path d="M0.5 6C0.5 2.96243 2.96243 0.5 6 0.5H88C91.0376 0.5 93.5 2.96243 93.5 6V35C93.5 38.0376 91.0376 40.5 88 40.5H6C2.96243 40.5 0.5 38.0376 0.5 35V6Z" fill="#F6F6F6" stroke="#BDBDBD"/>
<path d="M46.87 17.418V20.834H51.784V22.038H46.87V26H45.47V16.2H52.386V17.418H46.87ZM54.024 18.58H55.368V26H54.024V18.58ZM54.696 17.152C54.4347 17.152 54.2153 17.068 54.038 16.9C53.87 16.732 53.786 16.5267 53.786 16.284C53.786 16.0413 53.87 15.836 54.038 15.668C54.2153 15.4907 54.4347 15.402 54.696 15.402C54.9573 15.402 55.172 15.486 55.34 15.654C55.5173 15.8127 55.606 16.0133 55.606 16.256C55.606 16.508 55.5173 16.7227 55.34 16.9C55.172 17.068 54.9573 17.152 54.696 17.152ZM57.9342 15.612H59.2782V26H57.9342V15.612ZM66.194 25.566C65.998 25.734 65.7554 25.8647 65.466 25.958C65.1767 26.042 64.878 26.084 64.57 26.084C63.8234 26.084 63.2447 25.8833 62.834 25.482C62.4234 25.0807 62.218 24.5067 62.218 23.76V19.686H60.958V18.58H62.218V16.956H63.562V18.58H65.69V19.686H63.562V23.704C63.562 24.1053 63.66 24.4133 63.856 24.628C64.0614 24.8427 64.3507 24.95 64.724 24.95C65.1347 24.95 65.4847 24.8333 65.774 24.6L66.194 25.566ZM74.2788 22.332C74.2788 22.4347 74.2695 22.57 74.2508 22.738H68.2308C68.3148 23.3913 68.5995 23.9187 69.0848 24.32C69.5795 24.712 70.1908 24.908 70.9188 24.908C71.8055 24.908 72.5195 24.6093 73.0608 24.012L73.8028 24.88C73.4668 25.272 73.0468 25.5707 72.5428 25.776C72.0482 25.9813 71.4928 26.084 70.8768 26.084C70.0928 26.084 69.3975 25.9253 68.7908 25.608C68.1842 25.2813 67.7128 24.8287 67.3768 24.25C67.0502 23.6713 66.8868 23.018 66.8868 22.29C66.8868 21.5713 67.0455 20.9227 67.3628 20.344C67.6895 19.7653 68.1328 19.3173 68.6928 19C69.2622 18.6733 69.9015 18.51 70.6108 18.51C71.3202 18.51 71.9502 18.6733 72.5008 19C73.0608 19.3173 73.4948 19.7653 73.8028 20.344C74.1202 20.9227 74.2788 21.5853 74.2788 22.332ZM70.6108 19.644C69.9668 19.644 69.4255 19.84 68.9868 20.232C68.5575 20.624 68.3055 21.1373 68.2308 21.772H72.9908C72.9162 21.1467 72.6595 20.638 72.2208 20.246C71.7915 19.8447 71.2548 19.644 70.6108 19.644ZM77.4331 19.826C77.6664 19.3967 78.0118 19.07 78.4691 18.846C78.9264 18.622 79.4818 18.51 80.1351 18.51V19.812C80.0604 19.8027 79.9578 19.798 79.8271 19.798C79.0991 19.798 78.5251 20.0173 78.1051 20.456C77.6944 20.8853 77.4891 21.5013 77.4891 22.304V26H76.1451V18.58H77.4331V19.826Z" fill="#212229"/>
<path d="M17.75 15.75C17.75 15.5511 17.829 15.3603 17.9697 15.2197C18.1103 15.079 18.3011 15 18.5 15H29.5C29.6989 15 29.8897 15.079 30.0303 15.2197C30.171 15.3603 30.25 15.5511 30.25 15.75C30.25 15.9489 30.171 16.1397 30.0303 16.2803C29.8897 16.421 29.6989 16.5 29.5 16.5H18.5C18.3011 16.5 18.1103 16.421 17.9697 16.2803C17.829 16.1397 17.75 15.9489 17.75 15.75ZM19.75 19.75C19.75 19.5511 19.829 19.3603 19.9697 19.2197C20.1103 19.079 20.3011 19 20.5 19H27.5C27.6989 19 27.8897 19.079 28.0303 19.2197C28.171 19.3603 28.25 19.5511 28.25 19.75C28.25 19.9489 28.171 20.1397 28.0303 20.2803C27.8897 20.421 27.6989 20.5 27.5 20.5H20.5C20.3011 20.5 20.1103 20.421 19.9697 20.2803C19.829 20.1397 19.75 19.9489 19.75 19.75ZM21.75 23.75C21.75 23.5511 21.829 23.3603 21.9697 23.2197C22.1103 23.079 22.3011 23 22.5 23H25.5C25.6989 23 25.8897 23.079 26.0303 23.2197C26.171 23.3603 26.25 23.5511 26.25 23.75C26.25 23.9489 26.171 24.1397 26.0303 24.2803C25.8897 24.421 25.6989 24.5 25.5 24.5H22.5C22.3011 24.5 22.1103 24.421 21.9697 24.2803C21.829 24.1397 21.75 23.9489 21.75 23.75Z" fill="#212229"/>
</svg>
