<svg width="186" height="41" viewBox="0 0 186 41" fill="none" xmlns="http://www.w3.org/2000/svg">
<rect x="0.5" y="0.5" width="185" height="40" rx="5.5" fill="#F6F6F6" stroke="#BDBDBD"/>
<circle cx="19.8444" cy="19.8444" r="5.99237" stroke="#1E1F21" stroke-linecap="round" stroke-linejoin="round"/>
<path d="M24.0122 24.3234L26.3616 26.6667" stroke="#1E1F21" stroke-linecap="round" stroke-linejoin="round"/>
<path d="M40.326 26.112C39.5887 26.112 38.8747 26 38.184 25.776C37.5027 25.5427 36.966 25.244 36.574 24.88L37.092 23.788C37.4653 24.124 37.9413 24.3993 38.52 24.614C39.108 24.8193 39.71 24.922 40.326 24.922C41.138 24.922 41.7447 24.7867 42.146 24.516C42.5473 24.236 42.748 23.8673 42.748 23.41C42.748 23.074 42.636 22.8033 42.412 22.598C42.1973 22.3833 41.9267 22.22 41.6 22.108C41.2827 21.996 40.83 21.87 40.242 21.73C39.5047 21.5527 38.9073 21.3753 38.45 21.198C38.002 21.0207 37.6147 20.75 37.288 20.386C36.9707 20.0127 36.812 19.5133 36.812 18.888C36.812 18.3653 36.9473 17.894 37.218 17.474C37.498 17.054 37.918 16.718 38.478 16.466C39.038 16.214 39.7333 16.088 40.564 16.088C41.1427 16.088 41.712 16.1627 42.272 16.312C42.832 16.4613 43.3127 16.676 43.714 16.956L43.252 18.076C42.8413 17.8147 42.4027 17.6187 41.936 17.488C41.4693 17.348 41.012 17.278 40.564 17.278C39.7707 17.278 39.1733 17.4227 38.772 17.712C38.38 18.0013 38.184 18.3747 38.184 18.832C38.184 19.168 38.296 19.4433 38.52 19.658C38.744 19.8633 39.0193 20.0267 39.346 20.148C39.682 20.26 40.1347 20.3813 40.704 20.512C41.4413 20.6893 42.034 20.8667 42.482 21.044C42.93 21.2213 43.3127 21.492 43.63 21.856C43.9567 22.22 44.12 22.71 44.12 23.326C44.12 23.8393 43.98 24.3107 43.7 24.74C43.42 25.16 42.9953 25.496 42.426 25.748C41.8567 25.9907 41.1567 26.112 40.326 26.112ZM52.6753 22.332C52.6753 22.4347 52.666 22.57 52.6473 22.738H46.6273C46.7113 23.3913 46.996 23.9187 47.4813 24.32C47.976 24.712 48.5873 24.908 49.3153 24.908C50.202 24.908 50.916 24.6093 51.4573 24.012L52.1993 24.88C51.8633 25.272 51.4433 25.5707 50.9393 25.776C50.4446 25.9813 49.8893 26.084 49.2733 26.084C48.4893 26.084 47.794 25.9253 47.1873 25.608C46.5806 25.2813 46.1093 24.8287 45.7733 24.25C45.4466 23.6713 45.2833 23.018 45.2833 22.29C45.2833 21.5713 45.442 20.9227 45.7593 20.344C46.086 19.7653 46.5293 19.3173 47.0893 19C47.6586 18.6733 48.298 18.51 49.0073 18.51C49.7166 18.51 50.3466 18.6733 50.8973 19C51.4573 19.3173 51.8913 19.7653 52.1993 20.344C52.5166 20.9227 52.6753 21.5853 52.6753 22.332ZM49.0073 19.644C48.3633 19.644 47.822 19.84 47.3833 20.232C46.954 20.624 46.702 21.1373 46.6273 21.772H51.3873C51.3126 21.1467 51.056 20.638 50.6173 20.246C50.188 19.8447 49.6513 19.644 49.0073 19.644ZM57.0385 18.51C58.0652 18.51 58.8492 18.762 59.3905 19.266C59.9412 19.77 60.2165 20.5213 60.2165 21.52V26H58.9425V25.02C58.7185 25.3653 58.3965 25.6313 57.9765 25.818C57.5658 25.9953 57.0758 26.084 56.5065 26.084C55.6758 26.084 55.0085 25.8833 54.5045 25.482C54.0098 25.0807 53.7625 24.5533 53.7625 23.9C53.7625 23.2467 54.0005 22.724 54.4765 22.332C54.9525 21.9307 55.7085 21.73 56.7445 21.73H58.8725V21.464C58.8725 20.8853 58.7045 20.442 58.3685 20.134C58.0325 19.826 57.5378 19.672 56.8845 19.672C56.4458 19.672 56.0165 19.7467 55.5965 19.896C55.1765 20.036 54.8218 20.2273 54.5325 20.47L53.9725 19.462C54.3552 19.154 54.8125 18.9207 55.3445 18.762C55.8765 18.594 56.4412 18.51 57.0385 18.51ZM56.7305 25.048C57.2438 25.048 57.6872 24.936 58.0605 24.712C58.4338 24.4787 58.7045 24.152 58.8725 23.732V22.696H56.8005C55.6618 22.696 55.0925 23.0787 55.0925 23.844C55.0925 24.2173 55.2372 24.5113 55.5265 24.726C55.8158 24.9407 56.2172 25.048 56.7305 25.048ZM63.9917 19.826C64.225 19.3967 64.5704 19.07 65.0277 18.846C65.485 18.622 66.0404 18.51 66.6937 18.51V19.812C66.619 19.8027 66.5164 19.798 66.3857 19.798C65.6577 19.798 65.0837 20.0173 64.6637 20.456C64.253 20.8853 64.0477 21.5013 64.0477 22.304V26H62.7037V18.58H63.9917V19.826ZM71.5158 26.084C70.7598 26.084 70.0831 25.9207 69.4858 25.594C68.8978 25.2673 68.4358 24.8193 68.0998 24.25C67.7638 23.6713 67.5958 23.018 67.5958 22.29C67.5958 21.562 67.7638 20.9133 68.0998 20.344C68.4358 19.7653 68.8978 19.3173 69.4858 19C70.0831 18.6733 70.7598 18.51 71.5158 18.51C72.1878 18.51 72.7851 18.6453 73.3078 18.916C73.8398 19.1867 74.2505 19.5787 74.5398 20.092L73.5178 20.75C73.2845 20.3953 72.9951 20.1293 72.6498 19.952C72.3045 19.7747 71.9218 19.686 71.5018 19.686C71.0165 19.686 70.5778 19.7933 70.1858 20.008C69.8031 20.2227 69.4998 20.5307 69.2758 20.932C69.0611 21.324 68.9538 21.7767 68.9538 22.29C68.9538 22.8127 69.0611 23.2747 69.2758 23.676C69.4998 24.068 69.8031 24.3713 70.1858 24.586C70.5778 24.8007 71.0165 24.908 71.5018 24.908C71.9218 24.908 72.3045 24.8193 72.6498 24.642C72.9951 24.4647 73.2845 24.1987 73.5178 23.844L74.5398 24.488C74.2505 25.0013 73.8398 25.398 73.3078 25.678C72.7851 25.9487 72.1878 26.084 71.5158 26.084ZM80.1462 18.51C81.0888 18.51 81.8355 18.7853 82.3862 19.336C82.9462 19.8773 83.2262 20.6753 83.2262 21.73V26H81.8822V21.884C81.8822 21.1653 81.7095 20.624 81.3642 20.26C81.0188 19.896 80.5242 19.714 79.8802 19.714C79.1522 19.714 78.5782 19.9287 78.1582 20.358C77.7382 20.778 77.5282 21.3847 77.5282 22.178V26H76.1842V15.612H77.5282V19.63C77.8082 19.2753 78.1722 19 78.6202 18.804C79.0775 18.608 79.5862 18.51 80.1462 18.51Z" fill="#6A6A6A"/>
</svg>
